<svg xmlns="http://www.w3.org/2000/svg" xmlns:xlink="http://www.w3.org/1999/xlink" width="1920" zoomAndPan="magnify" viewBox="0 0 1440 809.999993" height="1080" preserveAspectRatio="xMidYMid meet" version="1.0"><defs><clipPath id="24c73972d7"><path d="M 733 407 L 859.089844 407 L 859.089844 464 L 733 464 Z M 733 407 " clip-rule="nonzero"/></clipPath><clipPath id="01dd28d5c8"><path d="M 615 270.707031 L 804 270.707031 L 804 530 L 615 530 Z M 615 270.707031 " clip-rule="nonzero"/></clipPath><clipPath id="bdf397309c"><path d="M 580.839844 332 L 707 332 L 707 389 L 580.839844 389 Z M 580.839844 332 " clip-rule="nonzero"/></clipPath><clipPath id="7f5dc7ae02"><path d="M 581 483 L 708 483 L 708 539.207031 L 581 539.207031 Z M 581 483 " clip-rule="nonzero"/></clipPath></defs><g clip-path="url(#24c73972d7)"><path fill="#fed63e" d="M 766.300781 454.675781 C 755.195312 454.675781 746.15625 445.976562 746.15625 435.285156 C 746.15625 424.585938 755.1875 415.890625 766.300781 415.890625 C 770.632812 415.890625 774.925781 417.265625 778.386719 419.765625 C 779.882812 420.84375 780.21875 422.933594 779.140625 424.425781 C 778.066406 425.921875 775.976562 426.257812 774.480469 425.179688 C 772.148438 423.496094 769.238281 422.570312 766.300781 422.570312 C 758.882812 422.570312 752.839844 428.273438 752.839844 435.28125 C 752.839844 442.289062 758.882812 447.996094 766.300781 447.996094 C 769.242188 447.996094 772.148438 447.070312 774.480469 445.386719 C 775.976562 444.308594 778.066406 444.644531 779.140625 446.140625 C 780.21875 447.632812 779.882812 449.722656 778.386719 450.800781 C 774.925781 453.300781 770.632812 454.675781 766.300781 454.675781 Z M 733.316406 407.230469 L 733.316406 463.355469 L 859.160156 463.355469 L 859.160156 407.230469 Z M 833.09375 454.675781 C 825.808594 454.675781 819.863281 449.757812 819.863281 443.707031 C 819.863281 441.863281 821.359375 440.367188 823.203125 440.367188 C 825.046875 440.367188 826.542969 441.863281 826.542969 443.707031 C 826.542969 445.996094 829.601562 448 833.085938 448 C 836.578125 448 839.632812 445.996094 839.632812 443.707031 C 839.632812 441.386719 836.683594 440.109375 831.8125 438.28125 C 826.488281 436.277344 819.863281 433.777344 819.863281 426.859375 C 819.863281 420.8125 825.800781 415.890625 833.085938 415.890625 C 840.378906 415.890625 846.3125 420.8125 846.3125 426.859375 C 846.3125 428.707031 844.816406 430.199219 842.972656 430.199219 C 841.128906 430.199219 839.632812 428.707031 839.632812 426.859375 C 839.632812 424.574219 836.578125 422.570312 833.085938 422.570312 C 829.601562 422.570312 826.542969 424.574219 826.542969 426.859375 C 826.542969 428.996094 829.5625 430.292969 834.164062 432.03125 C 839.578125 434.066406 846.3125 436.605469 846.3125 443.714844 C 846.324219 449.757812 840.386719 454.675781 833.09375 454.675781 Z M 799.816406 454.675781 C 792.53125 454.675781 786.59375 449.757812 786.59375 443.707031 C 786.59375 441.863281 788.089844 440.367188 789.933594 440.367188 C 791.785156 440.367188 793.273438 441.863281 793.273438 443.707031 C 793.273438 445.996094 796.332031 448 799.816406 448 C 803.308594 448 806.363281 445.996094 806.363281 443.707031 C 806.363281 441.386719 803.414062 440.109375 798.542969 438.28125 C 793.21875 436.277344 786.59375 433.777344 786.59375 426.859375 C 786.59375 420.8125 792.53125 415.890625 799.816406 415.890625 C 807.109375 415.890625 813.039062 420.8125 813.039062 426.859375 C 813.039062 428.707031 811.554688 430.199219 809.703125 430.199219 C 807.859375 430.199219 806.363281 428.707031 806.363281 426.859375 C 806.363281 424.574219 803.308594 422.570312 799.816406 422.570312 C 796.332031 422.570312 793.273438 424.574219 793.273438 426.859375 C 793.273438 428.996094 796.292969 430.292969 800.894531 432.03125 C 806.308594 434.066406 813.039062 436.605469 813.039062 443.714844 C 813.046875 449.757812 807.109375 454.675781 799.816406 454.675781 Z M 799.816406 454.675781 " fill-opacity="1" fill-rule="evenodd"/></g><g clip-path="url(#01dd28d5c8)"><path fill="#ffffff" d="M 710.007812 395.632812 L 616.003906 395.632812 L 616.003906 476.382812 L 710.808594 476.382812 C 712.660156 476.382812 714.148438 477.878906 714.148438 479.722656 L 714.148438 487.457031 L 775.824219 487.457031 C 777.667969 487.457031 779.164062 488.953125 779.164062 490.796875 C 779.164062 492.640625 777.667969 494.132812 775.824219 494.132812 L 714.148438 494.132812 L 714.148438 529.824219 L 785.382812 529.824219 C 795.117188 529.824219 803.023438 521.910156 803.023438 512.179688 L 803.023438 470.035156 L 729.976562 470.035156 C 728.132812 470.035156 726.640625 468.539062 726.640625 466.695312 L 726.640625 421.75 L 703.207031 421.75 C 701.363281 421.75 699.867188 420.253906 699.867188 418.410156 C 699.867188 416.566406 701.363281 415.070312 703.207031 415.070312 L 726.640625 415.070312 L 726.640625 403.890625 C 726.640625 402.046875 728.132812 400.550781 729.976562 400.550781 L 803.019531 400.550781 L 803.019531 288.441406 C 803.019531 278.71875 795.101562 270.796875 785.371094 270.796875 L 633.644531 270.796875 C 623.910156 270.796875 615.996094 278.710938 615.996094 288.441406 L 615.996094 326.148438 L 710.003906 326.148438 C 711.847656 326.148438 713.339844 327.644531 713.339844 329.488281 L 713.339844 342.6875 L 775.808594 342.6875 C 777.65625 342.6875 779.148438 344.179688 779.148438 346.023438 C 779.148438 347.867188 777.65625 349.363281 775.808594 349.363281 L 713.339844 349.363281 L 713.339844 378.878906 L 775.808594 378.878906 C 777.65625 378.878906 779.148438 380.375 779.148438 382.21875 C 779.148438 384.0625 777.65625 385.554688 775.808594 385.554688 L 713.339844 385.554688 L 713.339844 392.292969 C 713.347656 394.136719 711.855469 395.632812 710.007812 395.632812 Z M 775.816406 313.164062 L 643.199219 313.164062 C 641.355469 313.164062 639.859375 311.667969 639.859375 309.824219 C 639.859375 307.980469 641.355469 306.488281 643.199219 306.488281 L 775.816406 306.488281 C 777.660156 306.488281 779.15625 307.980469 779.15625 309.824219 C 779.164062 311.671875 777.660156 313.164062 775.816406 313.164062 Z M 643.199219 451.265625 L 709.507812 451.265625 C 711.351562 451.265625 712.847656 452.757812 712.847656 454.601562 C 712.847656 456.449219 711.351562 457.941406 709.507812 457.941406 L 643.199219 457.941406 C 641.355469 457.941406 639.859375 456.449219 639.859375 454.601562 C 639.859375 452.757812 641.359375 451.265625 643.199219 451.265625 Z M 670.457031 421.75 L 643.199219 421.75 C 641.351562 421.75 639.859375 420.253906 639.859375 418.410156 C 639.859375 416.566406 641.351562 415.070312 643.199219 415.070312 L 670.457031 415.070312 C 672.300781 415.070312 673.796875 416.566406 673.796875 418.410156 C 673.796875 420.253906 672.304688 421.75 670.457031 421.75 Z M 670.457031 421.75 " fill-opacity="1" fill-rule="evenodd"/></g><g clip-path="url(#bdf397309c)"><path fill="#fed63e" d="M 682.054688 348.054688 L 682.054688 370.390625 L 696.34375 370.390625 C 698.1875 370.390625 699.683594 371.882812 699.683594 373.726562 C 699.683594 375.570312 698.1875 377.066406 696.34375 377.066406 L 678.714844 377.066406 C 676.871094 377.066406 675.378906 375.570312 675.378906 373.726562 L 675.378906 348.054688 C 675.378906 346.210938 676.871094 344.714844 678.714844 344.714844 C 680.5625 344.714844 682.054688 346.210938 682.054688 348.054688 Z M 672.5625 348.046875 L 672.5625 373.726562 C 672.5625 375.570312 671.066406 377.066406 669.222656 377.066406 C 667.378906 377.066406 665.882812 375.570312 665.882812 373.726562 L 665.882812 364.617188 L 661.511719 375.023438 C 660.992188 376.265625 659.78125 377.066406 658.433594 377.066406 C 657.089844 377.066406 655.875 376.261719 655.351562 375.023438 L 650.980469 364.617188 L 650.980469 373.726562 C 650.980469 375.570312 649.488281 377.066406 647.640625 377.066406 C 645.796875 377.066406 644.304688 375.570312 644.304688 373.726562 L 644.304688 348.046875 C 644.304688 346.453125 645.421875 345.085938 646.980469 344.773438 C 648.542969 344.457031 650.109375 345.292969 650.722656 346.757812 L 658.4375 365.113281 L 666.148438 346.757812 C 666.761719 345.292969 668.328125 344.464844 669.882812 344.773438 C 671.4375 345.09375 672.5625 346.460938 672.5625 348.046875 Z M 706.671875 332.828125 L 580.835938 332.828125 L 580.835938 388.953125 L 706.675781 388.953125 L 706.675781 345.964844 Z M 630.695312 373.734375 C 630.695312 375.578125 629.199219 377.074219 627.355469 377.074219 C 625.511719 377.074219 624.015625 375.578125 624.015625 373.734375 L 624.015625 351.398438 L 616.558594 351.398438 C 614.714844 351.398438 613.21875 349.90625 613.21875 348.0625 C 613.21875 346.21875 614.714844 344.722656 616.558594 344.722656 L 638.148438 344.722656 C 639.992188 344.722656 641.484375 346.21875 641.484375 348.0625 C 641.484375 349.90625 639.992188 351.398438 638.148438 351.398438 L 630.695312 351.398438 Z M 610.402344 348.054688 L 610.402344 373.726562 C 610.402344 375.574219 608.910156 377.066406 607.066406 377.066406 C 605.21875 377.066406 603.726562 375.574219 603.726562 373.726562 L 603.726562 364.214844 L 594.496094 364.214844 L 594.496094 373.726562 C 594.496094 375.574219 593 377.066406 591.15625 377.066406 C 589.3125 377.066406 587.820312 375.574219 587.820312 373.726562 L 587.820312 348.054688 C 587.820312 346.210938 589.3125 344.714844 591.15625 344.714844 C 593 344.714844 594.496094 346.210938 594.496094 348.054688 L 594.496094 357.535156 L 603.726562 357.535156 L 603.726562 348.054688 C 603.726562 346.210938 605.21875 344.714844 607.066406 344.714844 C 608.910156 344.714844 610.402344 346.210938 610.402344 348.054688 Z M 610.402344 348.054688 " fill-opacity="1" fill-rule="evenodd"/></g><g clip-path="url(#7f5dc7ae02)"><path fill="#fed63e" d="M 707.464844 483.058594 L 581.621094 483.058594 L 581.621094 539.195312 L 707.464844 539.195312 Z M 664.730469 507.867188 C 670.550781 510.054688 677.777344 512.785156 677.777344 520.324219 C 677.777344 526.75 671.441406 531.980469 663.667969 531.980469 C 655.886719 531.980469 649.550781 526.75 649.550781 520.324219 C 649.550781 518.472656 651.046875 516.984375 652.890625 516.984375 C 654.734375 516.984375 656.230469 518.472656 656.230469 520.324219 C 656.230469 523.019531 659.632812 525.296875 663.660156 525.296875 C 667.695312 525.296875 671.09375 523.015625 671.09375 520.324219 C 671.09375 517.605469 667.800781 516.164062 662.371094 514.121094 C 656.660156 511.972656 649.546875 509.289062 649.546875 501.960938 C 649.546875 495.527344 655.878906 490.304688 663.660156 490.304688 C 671.441406 490.304688 677.777344 495.527344 677.777344 501.960938 C 677.777344 503.808594 676.28125 505.300781 674.4375 505.300781 C 672.59375 505.300781 671.101562 503.808594 671.101562 501.960938 C 671.101562 499.265625 667.695312 496.992188 663.667969 496.992188 C 659.640625 496.992188 656.234375 499.273438 656.234375 501.960938 C 656.234375 504.480469 659.449219 505.878906 664.730469 507.867188 Z M 640.25 517.785156 C 640.25 525.605469 633.753906 531.972656 625.777344 531.972656 C 617.796875 531.972656 611.308594 525.605469 611.308594 517.785156 C 611.308594 515.941406 612.796875 514.445312 614.648438 514.445312 C 616.492188 514.445312 617.988281 515.941406 617.988281 517.785156 C 617.988281 521.925781 621.476562 525.296875 625.773438 525.296875 C 630.074219 525.296875 633.570312 521.929688 633.570312 517.785156 L 633.570312 493.625 C 633.570312 491.78125 635.066406 490.285156 636.910156 490.285156 C 638.753906 490.285156 640.246094 491.78125 640.246094 493.625 Z M 640.25 517.785156 " fill-opacity="1" fill-rule="evenodd"/></g></svg>